<svg width="49" height="49" viewBox="0 0 49 49" fill="none" xmlns="http://www.w3.org/2000/svg">
<path d="M24.5 0C10.976 0 0 10.976 0 24.5C0 38.024 10.976 49 24.5 49C38.024 49 49 38.024 49 24.5C49 10.976 38.024 0 24.5 0ZM33.3445 15.533C35.966 15.533 38.073 17.64 38.073 20.2615C38.073 22.883 35.966 24.99 33.3445 24.99C30.723 24.99 28.616 22.883 28.616 20.2615C28.5915 17.64 30.723 15.533 33.3445 15.533ZM18.6445 11.662C21.8295 11.662 24.4265 14.259 24.4265 17.444C24.4265 20.629 21.8295 23.226 18.6445 23.226C15.4595 23.226 12.8625 20.629 12.8625 17.444C12.8625 14.2345 15.435 11.662 18.6445 11.662ZM18.6445 34.0305V43.218C12.7645 41.3805 8.1095 36.848 6.0515 31.066C8.624 28.322 15.043 26.9255 18.6445 26.9255C19.943 26.9255 21.5845 27.1215 23.2995 27.4645C19.2815 29.596 18.6445 32.4135 18.6445 34.0305ZM24.5 44.1C23.8385 44.1 23.2015 44.0755 22.5645 44.002V34.0305C22.5645 30.5515 29.7675 28.812 33.3445 28.812C35.966 28.812 40.4985 29.7675 42.7525 31.6295C39.886 38.906 32.8055 44.1 24.5 44.1Z" fill="#36A6D4"/>
</svg>
