<svg width="49" height="49" viewBox="0 0 49 49" fill="none" xmlns="http://www.w3.org/2000/svg">
<path fill-rule="evenodd" clip-rule="evenodd" d="M49 24.5C49 30.9978 46.4188 37.2295 41.8241 41.8241C37.2295 46.4188 30.9978 49 24.5 49C18.0022 49 11.7705 46.4188 7.17588 41.8241C2.58124 37.2295 0 30.9978 0 24.5C0 18.0022 2.58124 11.7705 7.17588 7.17588C11.7705 2.58124 18.0022 0 24.5 0C30.9978 0 37.2295 2.58124 41.8241 7.17588C46.4188 11.7705 49 18.0022 49 24.5ZM30.625 15.3125C30.625 16.937 29.9797 18.4949 28.831 19.6435C27.6824 20.7922 26.1245 21.4375 24.5 21.4375C22.8755 21.4375 21.3176 20.7922 20.169 19.6435C19.0203 18.4949 18.375 16.937 18.375 15.3125C18.375 13.688 19.0203 12.1301 20.169 10.9815C21.3176 9.83281 22.8755 9.1875 24.5 9.1875C26.1245 9.1875 27.6824 9.83281 28.831 10.9815C29.9797 12.1301 30.625 13.688 30.625 15.3125ZM24.5 27.5625C21.568 27.5619 18.6974 28.4031 16.2295 29.9862C13.7615 31.5692 11.7999 33.8275 10.5779 36.4928C12.3011 38.4975 14.4375 40.1058 16.8405 41.2074C19.2436 42.309 21.8565 42.8779 24.5 42.875C27.1435 42.8779 29.7564 42.309 32.1595 41.2074C34.5625 40.1058 36.6989 38.4975 38.4221 36.4928C37.2001 33.8275 35.2385 31.5692 32.7705 29.9862C30.3026 28.4031 27.432 27.5619 24.5 27.5625Z" fill="#36A6D4"/>
</svg>
