<svg width="375" height="160" viewBox="0 0 375 160" fill="none" xmlns="http://www.w3.org/2000/svg">
<path d="M226.922 52.0042C191.973 59.7821 160.358 79.4226 128.797 99.6823C156.486 94.9856 183.469 87.6489 210.048 80.5292C246.839 70.6734 284.911 60.9598 324.201 59.0847C292.408 48.4319 259.237 44.8098 226.922 52.0042Z" fill="url(#paint0_linear)"/>
<path d="M128.797 99.6685C111.632 102.579 94.1984 104.475 76.4197 104.668C49.9537 104.956 24.5163 101.522 -1.52588e-05 95.6585L-1.47201e-05 159.373C22.4536 154.947 44.4978 147.585 65.5942 137.227C87.2614 126.589 108.018 112.997 128.797 99.6685Z" fill="url(#paint1_linear)"/>
<path d="M128.797 86.3613C111.632 89.2718 94.1984 91.1683 76.4198 91.3426C49.9537 91.6344 24.5164 88.1973 4.57764e-05 82.3336L4.63152e-05 146.066C22.4536 141.639 44.4979 134.278 65.5942 123.92C87.2615 113.282 108.019 99.6898 128.797 86.3613Z" fill="url(#paint2_linear)"/>
<path d="M76.4197 104.668C94.193 104.475 111.632 102.579 128.797 99.6685C160.358 79.4231 191.973 59.7826 226.922 51.9904C259.237 44.796 292.408 48.4324 324.201 59.0567C330.917 58.7267 337.656 58.6424 344.387 58.8041C354.729 59.0808 364.994 60.1021 375 61.8498L375 27.0591C375 19.8826 370.685 13 363.003 7.92542C355.322 2.85086 344.904 5.06165e-07 334.041 6.88862e-07L40.9539 5.61805e-06C35.5763 4.93966e-06 30.2514 0.700037 25.2835 2.0601C20.3156 3.42017 15.8021 5.4136 12.0008 7.9265C8.19952 10.4394 5.185 13.4225 3.12955 16.7054C1.0741 19.9882 0.0179751 23.5065 0.0215151 27.0591L0.0215157 95.6585C24.5163 101.522 49.9536 104.963 76.4197 104.668Z" fill="#162259"/>
<path d="M324.201 59.0639C341.678 64.9204 358.735 72.8905 375 82.3514L375 61.8498C364.993 60.1069 354.728 59.0904 344.387 58.8183C337.656 58.6543 330.917 58.7362 324.201 59.0639Z" fill="url(#paint3_linear)"/>
<defs>
<linearGradient id="paint0_linear" x1="324.201" y1="73.9646" x2="128.797" y2="73.9646" gradientUnits="userSpaceOnUse">
<stop offset="0.01" stop-color="#009FE3"/>
<stop offset="0.38" stop-color="#0075AD"/>
<stop offset="1" stop-color="#0069A4"/>
</linearGradient>
<linearGradient id="paint1_linear" x1="128.797" y1="127.514" x2="-1.49894e-05" y2="127.514" gradientUnits="userSpaceOnUse">
<stop stop-color="#0075AD"/>
<stop offset="1" stop-color="#009FE3"/>
</linearGradient>
<linearGradient id="paint2_linear" x1="128.797" y1="114.21" x2="4.60459e-05" y2="114.21" gradientUnits="userSpaceOnUse">
<stop stop-color="#00528A"/>
<stop offset="0.43" stop-color="#0079B8"/>
<stop offset="0.8" stop-color="#0095D7"/>
<stop offset="1" stop-color="#009FE3"/>
</linearGradient>
<linearGradient id="paint3_linear" x1="-2020.69" y1="3957.12" x2="-2020.69" y2="5524.45" gradientUnits="userSpaceOnUse">
<stop stop-color="#00528A"/>
<stop offset="0.43" stop-color="#0079B8"/>
<stop offset="0.8" stop-color="#0095D7"/>
<stop offset="1" stop-color="#009FE3"/>
</linearGradient>
</defs>
</svg>
