<svg width="124" height="124" viewBox="0 0 124 124" fill="none" xmlns="http://www.w3.org/2000/svg">
<path d="M36.642 80.4733C41.9602 73.4572 45.7396 73.8693 49.4913 76.7191C50.6477 77.5976 51.662 78.6545 52.732 79.7688C56.1549 83.3344 60.3026 87.6546 68.9777 81.5129C72.6037 78.946 75.7549 77.5409 79.3829 77.4952C82.9044 77.4512 86.6315 78.7277 91.4477 81.5165L88.9424 85.847C84.9319 83.5248 81.9908 82.4597 79.4415 82.4917C76.9984 82.5224 74.6726 83.613 71.8548 85.6079C59.6809 94.2265 53.9009 88.2056 49.1306 83.2367C48.1764 82.2429 47.2714 81.3001 46.477 80.6966C45.0733 79.6301 43.4667 79.7287 40.615 83.491L36.642 80.4733Z" fill="#36A6D4"/>
<path d="M28.6318 48.087C33.494 37.6484 41.2396 30.9737 49.8835 27.6551C54.7452 25.7886 59.8965 24.9967 64.98 25.2047C70.0693 25.4131 75.0724 26.6195 79.6337 28.7485C87.7039 32.5159 94.4508 39.1619 97.9441 48.2813L92.4868 50.3614C89.5742 42.7585 83.9289 37.2078 77.1675 34.0515C73.2795 32.2367 69.0404 31.2093 64.7518 31.0339C60.4578 30.8583 56.0937 31.532 51.9614 33.1184C44.6615 35.921 38.0945 41.6132 33.9291 50.5557L28.6318 48.087Z" fill="#36A6D4"/>
<path d="M33.9291 73.4564C38.0945 82.3989 44.6615 88.0911 51.9614 90.8937C56.0937 92.48 60.4578 93.1538 64.7518 92.9782C69.0404 92.8028 73.2795 91.7753 77.1675 89.9606C83.9289 86.8043 89.5742 81.2536 92.4868 73.6507L97.9441 75.7308C94.4508 84.8502 87.7039 91.4961 79.6337 95.2635C75.0724 97.3926 70.0693 98.599 64.98 98.8074C59.8965 99.0154 54.7452 98.2235 49.8835 96.357C41.2396 93.0384 33.494 86.3637 28.6318 75.9251L33.9291 73.4564Z" fill="#36A6D4"/>
<path d="M26.3306 49.8246C28.8664 53.6449 31.4598 57.0336 34.1497 59.9584C39.9329 54.2237 46.2703 50.1193 53.4049 48.2699C65.2918 45.1886 79.2102 48.3857 96.194 60.7451L98.194 62.2006L96.0963 63.5144C78.9 74.2857 65.1725 77.8905 53.4948 75.523C46.3249 74.0691 39.9937 70.3881 34.166 64.7522C31.3552 67.8405 28.6695 71.3436 26.0777 75.1746L23.3247 73.3067C26.041 69.2917 28.8669 65.6152 31.8375 62.3679C28.9739 59.2735 26.2258 55.6954 23.5515 51.6664L26.3306 49.8246ZM36.4709 62.3421C41.855 67.5505 47.6505 70.94 54.1472 72.2574C59.399 73.3221 65.1512 73.0499 71.5599 71.3098C70.8849 68.1645 70.4704 65.0112 70.4599 61.8459C70.4491 58.5216 70.8882 55.2113 71.9439 51.9218C65.464 50.141 59.6035 50.1058 54.24 51.4962C47.7146 53.1877 41.8593 56.9964 36.4709 62.3421ZM74.7653 70.3351C80.1038 68.5435 85.885 65.7866 92.1905 61.9954C86.0635 57.7464 80.3947 54.7738 75.1234 52.9192C74.1729 55.8733 73.7773 58.8515 73.7872 61.8459C73.7964 64.641 74.1634 67.4755 74.7653 70.3351Z" fill="#03568A"/>
<path d="M80.6824 64.7289C81.9678 64.7289 83.0099 63.6131 83.0099 62.2367C83.0099 60.8603 81.9678 59.7445 80.6824 59.7445C79.3969 59.7445 78.3549 60.8603 78.3549 62.2367C78.3549 63.6131 79.3969 64.7289 80.6824 64.7289Z" fill="#03568A"/>
<path d="M58.476 52.0845C58.7457 52.0845 59.0052 52.1329 59.2466 52.2217C59.133 52.3791 59.0304 52.5551 58.9401 52.7476C58.7921 52.7054 58.6364 52.6828 58.476 52.6828C57.9796 52.6828 57.5301 52.8973 57.205 53.2435C56.8798 53.5895 56.6787 54.0682 56.6787 54.5967C56.6787 55.1251 56.8798 55.6038 57.205 55.9498C57.5301 56.296 57.9796 56.5105 58.476 56.5105C58.593 56.5105 58.7074 56.4984 58.8183 56.4757C58.8925 56.6735 58.979 56.8579 59.0762 57.0266C58.8845 57.0802 58.6834 57.1089 58.476 57.1089C57.8246 57.1089 57.2347 56.8276 56.8079 56.373C56.381 55.9183 56.1168 55.2903 56.1168 54.5967C56.1168 53.903 56.381 53.2751 56.8079 52.8203C57.2347 52.3658 57.8246 52.0845 58.476 52.0845ZM65.4766 52.0845C65.7464 52.0845 66.0058 52.1329 66.2472 52.2217C66.1337 52.3791 66.0311 52.5551 65.9407 52.7476C65.7926 52.7054 65.6371 52.6828 65.4766 52.6828C64.9802 52.6828 64.5307 52.8973 64.2056 53.2435C63.8805 53.5895 63.6793 54.0682 63.6793 54.5967C63.6793 55.1251 63.8805 55.6038 64.2056 55.9498C64.5307 56.296 64.9802 56.5105 65.4766 56.5105C65.5937 56.5105 65.7081 56.4984 65.819 56.4757C65.8932 56.6735 65.9797 56.8579 66.0769 57.0266C65.8852 57.0802 65.684 57.1089 65.4766 57.1089C64.8253 57.1089 64.2353 56.8276 63.8086 56.373C63.3817 55.9183 63.1175 55.2903 63.1175 54.5967C63.1175 53.903 63.3817 53.2751 63.8086 52.8203C64.2353 52.3658 64.8253 52.0845 65.4766 52.0845ZM65.4766 58.9585C65.7464 58.9585 66.0058 59.0068 66.2472 59.0957C66.1337 59.253 66.0311 59.4291 65.9407 59.6215C65.7926 59.5793 65.6371 59.5568 65.4766 59.5568C64.9802 59.5568 64.5307 59.7713 64.2056 60.1175C63.8805 60.4635 63.6793 60.9422 63.6793 61.4707C63.6793 61.9991 63.8805 62.4778 64.2056 62.8238C64.5307 63.17 64.9802 63.3845 65.4766 63.3845C65.5937 63.3845 65.7081 63.3724 65.819 63.3496C65.8932 63.5475 65.9797 63.7319 66.0769 63.9006C65.8852 63.9542 65.684 63.9828 65.4766 63.9828C64.8253 63.9828 64.2353 63.7015 63.8086 63.247C63.3817 62.7922 63.1175 62.1643 63.1175 61.4707C63.1175 60.777 63.3817 60.1491 63.8086 59.6943C64.2353 59.2397 64.8253 58.9585 65.4766 58.9585ZM65.4766 65.8166C65.7464 65.8166 66.0058 65.8649 66.2472 65.9537C66.1337 66.1111 66.0311 66.2871 65.9407 66.4796C65.7926 66.4374 65.6371 66.4149 65.4766 66.4149C64.9802 66.4149 64.5307 66.6294 64.2056 66.9756C63.8805 67.3216 63.6793 67.8002 63.6793 68.3287C63.6793 68.8571 63.8805 69.3359 64.2056 69.6818C64.5307 70.0281 64.9802 70.2425 65.4766 70.2425C65.5937 70.2425 65.7081 70.2304 65.819 70.2077C65.8932 70.4056 65.9797 70.5899 66.0769 70.7587C65.8852 70.8122 65.684 70.8409 65.4766 70.8409C64.8253 70.8409 64.2353 70.5596 63.8086 70.1051C63.3817 69.6504 63.1175 69.0223 63.1175 68.3287C63.1175 67.6351 63.3817 67.0071 63.8086 66.5523C64.2353 66.0978 64.8253 65.8166 65.4766 65.8166ZM58.476 65.8166C58.7457 65.8166 59.0052 65.8649 59.2466 65.9537C59.133 66.1111 59.0304 66.2871 58.9401 66.4796C58.7921 66.4374 58.6364 66.4149 58.476 66.4149C57.9796 66.4149 57.5301 66.6294 57.205 66.9756C56.8798 67.3216 56.6787 67.8002 56.6787 68.3287C56.6787 68.8571 56.8798 69.3359 57.205 69.6818C57.5301 70.0281 57.9796 70.2425 58.476 70.2425C58.593 70.2425 58.7074 70.2304 58.8183 70.2077C58.8925 70.4056 58.979 70.5899 59.0762 70.7587C58.8845 70.8122 58.6834 70.8409 58.476 70.8409C57.8246 70.8409 57.2347 70.5596 56.8079 70.1051C56.381 69.6504 56.1168 69.0223 56.1168 68.3287C56.1168 67.6351 56.381 67.0071 56.8079 66.5523C57.2347 66.0978 57.8246 65.8166 58.476 65.8166ZM58.476 58.9585C58.7457 58.9585 59.0052 59.0068 59.2466 59.0957C59.133 59.253 59.0304 59.4291 58.9401 59.6215C58.7921 59.5793 58.6364 59.5568 58.476 59.5568C57.9796 59.5568 57.5301 59.7713 57.205 60.1175C56.8798 60.4635 56.6787 60.9422 56.6787 61.4707C56.6787 61.9991 56.8798 62.4778 57.205 62.8238C57.5301 63.17 57.9796 63.3845 58.476 63.3845C58.593 63.3845 58.7074 63.3724 58.8183 63.3496C58.8925 63.5475 58.979 63.7319 59.0762 63.9006C58.8845 63.9542 58.6834 63.9828 58.476 63.9828C57.8246 63.9828 57.2347 63.7015 56.8079 63.247C56.381 62.7922 56.1168 62.1643 56.1168 61.4707C56.1168 60.777 56.381 60.1491 56.8079 59.6943C57.2347 59.2397 57.8246 58.9585 58.476 58.9585ZM52.334 56.0719C52.6039 56.0719 52.8632 56.1203 53.1047 56.209C52.9912 56.3664 52.8884 56.5425 52.7982 56.7349C52.6501 56.6927 52.4945 56.6702 52.334 56.6702C51.8376 56.6702 51.3882 56.8847 51.063 57.2309C50.7378 57.5769 50.5367 58.0556 50.5367 58.5841C50.5367 59.1125 50.7378 59.5912 51.063 59.9372C51.3882 60.2833 51.8376 60.4979 52.334 60.4979C52.4511 60.4979 52.5655 60.4858 52.6764 60.463C52.7505 60.6608 52.837 60.8453 52.9342 61.014C52.7426 61.0676 52.5414 61.0963 52.334 61.0963C51.6827 61.0963 51.0927 60.8149 50.6659 60.3604C50.239 59.9056 49.9748 59.2777 49.9748 58.5841C49.9748 57.8904 50.239 57.2624 50.6659 56.8077C51.0927 56.3531 51.6827 56.0719 52.334 56.0719ZM52.334 63.0098C52.6039 63.0098 52.8632 63.0582 53.1047 63.147C52.9912 63.3044 52.8884 63.4804 52.7982 63.6729C52.6501 63.6307 52.4945 63.6081 52.334 63.6081C51.8376 63.6081 51.3882 63.8226 51.063 64.1688C50.7378 64.5148 50.5367 64.9935 50.5367 65.522C50.5367 66.0504 50.7378 66.5291 51.063 66.8751C51.3882 67.2214 51.8376 67.4358 52.334 67.4358C52.4511 67.4358 52.5655 67.4237 52.6764 67.401C52.7505 67.5989 52.837 67.7832 52.9342 67.9519C52.7426 68.0055 52.5414 68.0342 52.334 68.0342C51.6827 68.0342 51.0927 67.7529 50.6659 67.2983C50.239 66.8436 49.9748 66.2156 49.9748 65.522C49.9748 64.8283 50.239 64.2004 50.6659 63.7456C51.0927 63.2911 51.6827 63.0098 52.334 63.0098ZM46.4506 58.9585C46.7204 58.9585 46.9797 59.0068 47.2212 59.0957C47.1077 59.253 47.0049 59.4291 46.9147 59.6215C46.7666 59.5793 46.6111 59.5568 46.4506 59.5568C45.9541 59.5568 45.5047 59.7713 45.1795 60.1175C44.8545 60.4635 44.6533 60.9422 44.6533 61.4707C44.6533 61.9991 44.8545 62.4778 45.1795 62.8238C45.5047 63.17 45.9541 63.3845 46.4506 63.3845C46.5677 63.3845 46.6821 63.3724 46.793 63.3496C46.8671 63.5475 46.9537 63.7319 47.0508 63.9006C46.8592 63.9542 46.6579 63.9828 46.4506 63.9828C45.7992 63.9828 45.2092 63.7015 44.7825 63.247C44.3555 62.7922 44.0913 62.1643 44.0913 61.4707C44.0913 60.777 44.3555 60.1491 44.7825 59.6943C45.2092 59.2397 45.7992 58.9585 46.4506 58.9585Z" fill="#03568A"/>
<path d="M58.4766 51.8471C58.6229 51.8471 58.7675 51.8604 58.9089 51.8856C59.0533 51.9108 59.1941 51.9495 59.3286 51.9991L59.6211 52.1069L59.4387 52.3592C59.3859 52.4324 59.3357 52.5095 59.2891 52.5896C59.2405 52.6742 59.1949 52.7605 59.1541 52.8472L59.0684 53.0302L58.876 52.9749C58.8104 52.9562 58.7439 52.9417 58.6788 52.9327C58.6158 52.9242 58.5482 52.9195 58.4766 52.9195C58.2665 52.9195 58.0661 52.964 57.8843 53.0441C57.6941 53.128 57.5215 53.2519 57.3776 53.4053C57.2323 53.56 57.115 53.7451 57.0355 53.9494C56.9588 54.1475 56.916 54.366 56.916 54.5963C56.916 54.8267 56.9588 55.0452 57.0355 55.2432C57.115 55.4475 57.2323 55.6326 57.3776 55.7873C57.5215 55.9406 57.6941 56.0646 57.8843 56.1485C58.0661 56.2286 58.2665 56.2732 58.4766 56.2732C58.531 56.2732 58.5805 56.2705 58.6244 56.2663C58.6743 56.2613 58.724 56.2535 58.7718 56.2437L58.9695 56.2037L59.04 56.3919C59.0762 56.4888 59.1139 56.5788 59.152 56.6604C59.1927 56.7471 59.236 56.8303 59.2809 56.9087L59.4324 57.1723L59.1397 57.254C59.0338 57.2836 58.9235 57.3066 58.8111 57.322C58.6985 57.3371 58.5865 57.3455 58.4766 57.3455C58.1239 57.3455 57.7866 57.2701 57.4794 57.1348C57.1617 56.9948 56.8753 56.7891 56.6364 56.5348C56.3989 56.2817 56.2065 55.9783 56.0759 55.6418C55.9504 55.3186 55.8806 54.965 55.8806 54.5963C55.8806 54.2275 55.9504 53.874 56.0759 53.5508C56.2065 53.2142 56.3989 52.9109 56.6364 52.6578C56.8753 52.4035 57.1617 52.1979 57.4794 52.0578C57.7866 51.9225 58.1239 51.8471 58.4766 51.8471ZM58.8274 52.3519C58.714 52.3318 58.5967 52.3211 58.4766 52.3211C58.1904 52.3211 57.9175 52.3818 57.6696 52.491C57.4104 52.6052 57.1764 52.7738 56.9805 52.982C56.7834 53.1919 56.6241 53.4432 56.5162 53.7209C56.412 53.9892 56.354 54.2851 56.354 54.5963C56.354 54.9075 56.412 55.2034 56.5162 55.4717C56.6241 55.7494 56.7834 56.0006 56.9805 56.2105C57.1764 56.4189 57.4104 56.5874 57.6696 56.7016C57.9175 56.8108 58.1904 56.8715 58.4766 56.8715C58.5628 56.8715 58.6454 56.8665 58.7233 56.8571L58.6694 56.7366C58.6016 56.7433 58.5367 56.7471 58.4766 56.7471C58.2002 56.7471 57.9355 56.6881 57.6941 56.5817C57.4452 56.4722 57.2204 56.3108 57.0333 56.1115C56.8476 55.9139 56.6977 55.6767 56.5952 55.4134C56.4972 55.1606 56.4425 54.8843 56.4425 54.5963C56.4425 54.3084 56.4972 54.032 56.5952 53.7792C56.6977 53.5159 56.8476 53.2788 57.0333 53.081C57.2204 52.8818 57.4452 52.7204 57.6941 52.6109C57.9355 52.5045 58.2002 52.4455 58.4766 52.4455C58.5642 52.4455 58.6534 52.4521 58.7437 52.4645L58.8127 52.4754L58.876 52.3611L58.8274 52.3519ZM65.4773 51.8471C65.6235 51.8471 65.7684 51.8604 65.9095 51.8853C66.0539 51.9108 66.1948 51.9495 66.3291 51.9991L66.6218 52.1069L66.4393 52.3592C66.3865 52.4324 66.3363 52.5095 66.2896 52.5896C66.2411 52.6742 66.1954 52.7605 66.1547 52.8472L66.0691 53.0302L65.8765 52.9749C65.811 52.9562 65.7445 52.9417 65.6794 52.9327C65.6165 52.9242 65.5487 52.9195 65.4773 52.9195C65.267 52.9195 65.0668 52.964 64.885 53.0441C64.6947 53.128 64.5221 53.2519 64.3782 53.4053C64.2328 53.56 64.1157 53.7451 64.0361 53.9494C63.9595 54.1475 63.9165 54.366 63.9165 54.5963C63.9165 54.8267 63.9595 55.0452 64.0361 55.2432C64.1157 55.4475 64.2328 55.6326 64.3782 55.7873C64.5221 55.9406 64.6947 56.0646 64.885 56.1485C65.0668 56.2286 65.267 56.2732 65.4773 56.2732C65.5317 56.2732 65.5811 56.2705 65.6249 56.2663C65.6749 56.2613 65.7246 56.2535 65.7725 56.2437L65.9701 56.2037L66.0406 56.3919C66.0769 56.4888 66.1145 56.5788 66.1526 56.6604C66.1933 56.7471 66.2366 56.8303 66.2816 56.9087L66.4331 57.1723L66.1403 57.254C66.0345 57.2836 65.9242 57.3066 65.8118 57.322C65.699 57.3371 65.587 57.3455 65.4773 57.3455C65.1245 57.3455 64.7872 57.2701 64.4799 57.1348C64.1623 56.9948 63.8758 56.7891 63.637 56.5348C63.3996 56.2817 63.2072 55.9783 63.0765 55.6418C62.951 55.3186 62.8812 54.965 62.8812 54.5963C62.8812 54.2275 62.951 53.874 63.0765 53.5508C63.2072 53.2142 63.3996 52.9109 63.637 52.6578C63.8758 52.4035 64.1623 52.1979 64.4799 52.0578C64.7872 51.9225 65.1245 51.8471 65.4773 51.8471ZM65.828 52.3516C65.7152 52.3318 65.5975 52.3211 65.4773 52.3211C65.1911 52.3211 64.9182 52.3818 64.6703 52.491C64.4111 52.6052 64.1769 52.7738 63.9812 52.982C63.784 53.1919 63.6248 53.4432 63.5167 53.7209C63.4127 53.9892 63.3546 54.2851 63.3546 54.5963C63.3546 54.9075 63.4127 55.2034 63.5167 55.4717C63.6248 55.7494 63.784 56.0006 63.9812 56.2105C64.1769 56.4189 64.4111 56.5874 64.6703 56.7016C64.9182 56.8108 65.1911 56.8715 65.4773 56.8715C65.5634 56.8715 65.646 56.8665 65.7239 56.8571L65.6699 56.7366C65.6022 56.7433 65.5374 56.7471 65.4773 56.7471C65.2007 56.7471 64.9362 56.6881 64.6947 56.5817C64.4459 56.4722 64.221 56.3108 64.034 56.1115C63.8482 55.9139 63.6983 55.6767 63.5959 55.4134C63.4979 55.1606 63.4432 54.8843 63.4432 54.5963C63.4432 54.3084 63.4979 54.032 63.5959 53.7792C63.6983 53.5159 63.8482 53.2788 64.034 53.081C64.221 52.8818 64.4459 52.7204 64.6947 52.6109C64.9362 52.5045 65.2007 52.4455 65.4773 52.4455C65.5649 52.4455 65.6541 52.4521 65.7442 52.4645L65.8134 52.4754L65.8765 52.3609L65.828 52.3516ZM65.4773 58.7211C65.6235 58.7211 65.7684 58.7344 65.9095 58.7592C66.0539 58.7848 66.1948 58.8235 66.3291 58.873L66.6218 58.9809L66.4393 59.2332C66.3865 59.3064 66.3363 59.3834 66.2896 59.4636C66.2411 59.5482 66.1954 59.6345 66.1547 59.7212L66.0691 59.9042L65.8765 59.8489C65.811 59.8302 65.7445 59.8157 65.6794 59.8067C65.6165 59.7982 65.5487 59.7935 65.4773 59.7935C65.267 59.7935 65.0668 59.838 64.885 59.9181C64.6947 60.002 64.5221 60.1259 64.3782 60.2792C64.2328 60.434 64.1157 60.619 64.0361 60.8233C63.9595 61.0214 63.9165 61.24 63.9165 61.4703C63.9165 61.7006 63.9595 61.9192 64.0361 62.1172C64.1157 62.3215 64.2328 62.5066 64.3782 62.6613C64.5221 62.8146 64.6947 62.9386 64.885 63.0224C65.0668 63.1025 65.267 63.1472 65.4773 63.1472C65.5317 63.1472 65.5811 63.1445 65.6249 63.1402C65.6749 63.1353 65.7246 63.1275 65.7725 63.1177L65.9701 63.0777L66.0406 63.2659C66.0769 63.3628 66.1145 63.4528 66.1526 63.5343C66.1933 63.621 66.2366 63.7042 66.2816 63.7827L66.4331 64.0462L66.1403 64.1279C66.0345 64.1576 65.9242 64.1805 65.8118 64.1959C65.699 64.2111 65.587 64.2195 65.4773 64.2195C65.1245 64.2195 64.7872 64.1441 64.4799 64.0088C64.1623 63.8686 63.8758 63.663 63.637 63.4087C63.3996 63.1556 63.2072 62.8523 63.0765 62.5158C62.951 62.1926 62.8812 61.839 62.8812 61.4703C62.8812 61.1015 62.951 60.748 63.0765 60.4247C63.2072 60.0882 63.3996 59.7849 63.637 59.5318C63.8758 59.2775 64.1623 59.0719 64.4799 58.9318C64.7872 58.7965 65.1245 58.7211 65.4773 58.7211ZM65.828 59.2256C65.7152 59.2057 65.5975 59.1951 65.4773 59.1951C65.1911 59.1951 64.9182 59.2557 64.6703 59.365C64.4111 59.4792 64.1769 59.6476 63.9812 59.856C63.784 60.0659 63.6248 60.3171 63.5167 60.5949C63.4127 60.8631 63.3546 61.1591 63.3546 61.4703C63.3546 61.7814 63.4127 62.0774 63.5167 62.3457C63.6248 62.6234 63.784 62.8746 63.9812 63.0845C64.1769 63.2929 64.4111 63.4614 64.6703 63.5755C64.9182 63.6848 65.1911 63.7455 65.4773 63.7455C65.5634 63.7455 65.646 63.7405 65.7239 63.7311L65.6699 63.6106C65.6022 63.6173 65.5374 63.6211 65.4773 63.6211C65.2007 63.6211 64.9362 63.562 64.6947 63.4557C64.4459 63.3462 64.221 63.1848 64.034 62.9855C63.8482 62.7879 63.6983 62.5506 63.5959 62.2873C63.4979 62.0345 63.4432 61.7581 63.4432 61.4703C63.4432 61.1824 63.4979 60.906 63.5959 60.6532C63.6983 60.3899 63.8482 60.1526 64.034 59.955C64.221 59.7558 64.4459 59.5943 64.6947 59.4849C64.9362 59.3785 65.2007 59.3195 65.4773 59.3195C65.5649 59.3195 65.6541 59.3261 65.7442 59.3384L65.8134 59.3494L65.8765 59.2349L65.828 59.2256ZM65.4773 65.5792C65.6235 65.5792 65.7684 65.5924 65.9095 65.6174C66.0539 65.643 66.1948 65.6816 66.3291 65.7311L66.6218 65.8389L66.4393 66.0913C66.3865 66.1646 66.3363 66.2416 66.2896 66.3216C66.2411 66.4062 66.1954 66.4925 66.1547 66.5792L66.0691 66.7622L65.8765 66.7069C65.811 66.6882 65.7445 66.6738 65.6794 66.6648C65.6165 66.6562 65.5487 66.6515 65.4773 66.6515C65.267 66.6515 65.0668 66.696 64.885 66.7761C64.6947 66.86 64.5221 66.984 64.3782 67.1373C64.2328 67.292 64.1157 67.4771 64.0361 67.6814C63.9595 67.8795 63.9165 68.098 63.9165 68.3284C63.9165 68.5587 63.9595 68.7772 64.0361 68.9753C64.1157 69.1795 64.2328 69.3646 64.3782 69.5195C64.5221 69.6728 64.6947 69.7966 64.885 69.8806C65.0668 69.9607 65.267 70.0052 65.4773 70.0052C65.5317 70.0052 65.5811 70.0026 65.6249 69.9983C65.6749 69.9933 65.7246 69.9855 65.7725 69.9759L65.9701 69.9358L66.0406 70.1239C66.0769 70.2208 66.1145 70.3109 66.1526 70.3924C66.1933 70.4792 66.2366 70.5623 66.2816 70.6408L66.4331 70.9043L66.1403 70.9861C66.0345 71.0156 65.9242 71.0387 65.8118 71.0541C65.699 71.0693 65.587 71.0775 65.4773 71.0775C65.1245 71.0775 64.7872 71.0021 64.4799 70.8668C64.1623 70.7268 63.8758 70.5211 63.637 70.2668C63.3996 70.0138 63.2072 69.7103 63.0765 69.3739C62.951 69.0506 62.8812 68.6971 62.8812 68.3284C62.8812 67.9597 62.951 67.6061 63.0765 67.2828C63.2072 66.9463 63.3996 66.6429 63.637 66.3898C63.8758 66.1357 64.1623 65.9299 64.4799 65.7899C64.7872 65.6545 65.1245 65.5792 65.4773 65.5792ZM65.828 66.0837C65.7152 66.0638 65.5975 66.0531 65.4773 66.0531C65.1911 66.0531 64.9182 66.1138 64.6703 66.223C64.4111 66.3373 64.1769 66.5058 63.9812 66.7141C63.784 66.9241 63.6248 67.1752 63.5167 67.453C63.4127 67.7212 63.3546 68.0172 63.3546 68.3284C63.3546 68.6395 63.4127 68.9354 63.5167 69.2037C63.6248 69.4814 63.784 69.7327 63.9812 69.9427C64.1769 70.1509 64.4111 70.3194 64.6703 70.4337C64.9182 70.5429 65.1911 70.6036 65.4773 70.6036C65.5634 70.6036 65.646 70.5986 65.7239 70.5891L65.6699 70.4688C65.6022 70.4754 65.5374 70.4792 65.4773 70.4792C65.2007 70.4792 64.9362 70.4202 64.6947 70.3137C64.4459 70.2042 64.221 70.0429 64.034 69.8435C63.8482 69.646 63.6983 69.4088 63.5959 69.1455C63.4979 68.8926 63.4432 68.6163 63.4432 68.3284C63.4432 68.0404 63.4979 67.7641 63.5959 67.5113C63.6983 67.2479 63.8482 67.0108 64.034 66.8132C64.221 66.6138 64.4459 66.4525 64.6947 66.3429C64.9362 66.2365 65.2007 66.1775 65.4773 66.1775C65.5649 66.1775 65.6541 66.1842 65.7442 66.1965L65.8134 66.2074L65.8765 66.093L65.828 66.0837ZM58.4766 65.5792C58.6229 65.5792 58.7675 65.5924 58.9089 65.6176C59.0533 65.643 59.1941 65.6816 59.3286 65.7311L59.6211 65.8389L59.4387 66.0913C59.3859 66.1646 59.3357 66.2416 59.2891 66.3216C59.2405 66.4062 59.1949 66.4925 59.1541 66.5792L59.0684 66.7622L58.876 66.7069C58.8104 66.6882 58.7439 66.6738 58.6788 66.6648C58.6158 66.6562 58.5482 66.6515 58.4766 66.6515C58.2665 66.6515 58.0661 66.696 57.8843 66.7761C57.6941 66.86 57.5215 66.984 57.3776 67.1373C57.2323 67.292 57.115 67.4771 57.0355 67.6814C56.9588 67.8795 56.916 68.098 56.916 68.3284C56.916 68.5587 56.9588 68.7772 57.0355 68.9753C57.115 69.1795 57.2323 69.3646 57.3776 69.5195C57.5215 69.6728 57.6941 69.7966 57.8843 69.8806C58.0661 69.9607 58.2665 70.0052 58.4766 70.0052C58.531 70.0052 58.5805 70.0026 58.6244 69.9983C58.6743 69.9933 58.724 69.9855 58.7718 69.9759L58.9695 69.9358L59.04 70.1239C59.0762 70.2208 59.1139 70.3109 59.152 70.3924C59.1927 70.4792 59.236 70.5623 59.2809 70.6408L59.4324 70.9043L59.1397 70.9861C59.0338 71.0156 58.9235 71.0387 58.8111 71.0541C58.6985 71.0693 58.5865 71.0775 58.4766 71.0775C58.1239 71.0775 57.7866 71.0021 57.4794 70.8668C57.1617 70.7268 56.8753 70.5211 56.6364 70.2668C56.3989 70.0138 56.2065 69.7103 56.0759 69.3739C55.9504 69.0506 55.8806 68.6971 55.8806 68.3284C55.8806 67.9597 55.9504 67.6061 56.0759 67.2828C56.2065 66.9463 56.3989 66.6429 56.6364 66.3898C56.8753 66.1357 57.1617 65.9299 57.4794 65.7899C57.7866 65.6545 58.1239 65.5792 58.4766 65.5792ZM58.8274 66.084C58.714 66.0638 58.5967 66.0531 58.4766 66.0531C58.1904 66.0531 57.9175 66.1138 57.6696 66.223C57.4104 66.3373 57.1764 66.5058 56.9805 66.7141C56.7834 66.9241 56.6241 67.1752 56.5162 67.453C56.412 67.7212 56.354 68.0172 56.354 68.3284C56.354 68.6395 56.412 68.9354 56.5162 69.2037C56.6241 69.4814 56.7834 69.7327 56.9805 69.9427C57.1764 70.1509 57.4104 70.3194 57.6696 70.4337C57.9175 70.5429 58.1904 70.6036 58.4766 70.6036C58.5628 70.6036 58.6454 70.5986 58.7233 70.5891L58.6694 70.4688C58.6016 70.4754 58.5367 70.4792 58.4766 70.4792C58.2002 70.4792 57.9355 70.4202 57.6941 70.3137C57.4452 70.2042 57.2204 70.0429 57.0333 69.8435C56.8476 69.646 56.6977 69.4088 56.5952 69.1455C56.4972 68.8926 56.4425 68.6163 56.4425 68.3284C56.4425 68.0404 56.4972 67.7641 56.5952 67.5113C56.6977 67.2479 56.8476 67.0108 57.0333 66.8132C57.2204 66.6138 57.4452 66.4525 57.6941 66.3429C57.9355 66.2365 58.2002 66.1775 58.4766 66.1775C58.5642 66.1775 58.6534 66.1842 58.7437 66.1965L58.8127 66.2074L58.876 66.0932L58.8274 66.084ZM58.4766 58.7211C58.6229 58.7211 58.7675 58.7344 58.9089 58.7595C59.0533 58.7848 59.1941 58.8235 59.3286 58.873L59.6211 58.9809L59.4387 59.2332C59.3859 59.3064 59.3357 59.3834 59.2891 59.4636C59.2405 59.5482 59.1949 59.6345 59.1541 59.7212L59.0684 59.9042L58.876 59.8489C58.8104 59.8302 58.7439 59.8157 58.6788 59.8067C58.6158 59.7982 58.5482 59.7935 58.4766 59.7935C58.2665 59.7935 58.0661 59.838 57.8843 59.9181C57.6941 60.002 57.5215 60.1259 57.3776 60.2792C57.2323 60.434 57.115 60.619 57.0355 60.8233C56.9588 61.0214 56.916 61.24 56.916 61.4703C56.916 61.7006 56.9588 61.9192 57.0355 62.1172C57.115 62.3215 57.2323 62.5066 57.3776 62.6613C57.5215 62.8146 57.6941 62.9386 57.8843 63.0224C58.0661 63.1025 58.2665 63.1472 58.4766 63.1472C58.531 63.1472 58.5805 63.1445 58.6244 63.1402C58.6743 63.1353 58.724 63.1275 58.7718 63.1177L58.9695 63.0777L59.04 63.2659C59.0762 63.3628 59.1139 63.4528 59.152 63.5343C59.1927 63.621 59.236 63.7042 59.2809 63.7827L59.4324 64.0462L59.1397 64.1279C59.0338 64.1576 58.9235 64.1805 58.8111 64.1959C58.6985 64.2111 58.5865 64.2195 58.4766 64.2195C58.1239 64.2195 57.7866 64.1441 57.4794 64.0088C57.1617 63.8686 56.8753 63.663 56.6364 63.4087C56.3989 63.1556 56.2065 62.8523 56.0759 62.5158C55.9504 62.1926 55.8806 61.839 55.8806 61.4703C55.8806 61.1015 55.9504 60.748 56.0759 60.4247C56.2065 60.0882 56.3989 59.7849 56.6364 59.5318C56.8753 59.2775 57.1617 59.0719 57.4794 58.9318C57.7866 58.7965 58.1239 58.7211 58.4766 58.7211ZM58.8274 59.2258C58.714 59.2057 58.5967 59.1951 58.4766 59.1951C58.1904 59.1951 57.9175 59.2557 57.6696 59.365C57.4104 59.4792 57.1764 59.6476 56.9805 59.856C56.7834 60.0659 56.6241 60.3171 56.5162 60.5949C56.412 60.8631 56.354 61.1591 56.354 61.4703C56.354 61.7814 56.412 62.0774 56.5162 62.3457C56.6241 62.6234 56.7834 62.8746 56.9805 63.0845C57.1764 63.2929 57.4104 63.4614 57.6696 63.5755C57.9175 63.6848 58.1904 63.7455 58.4766 63.7455C58.5628 63.7455 58.6454 63.7405 58.7233 63.7311L58.6694 63.6106C58.6016 63.6173 58.5367 63.6211 58.4766 63.6211C58.2002 63.6211 57.9355 63.562 57.6941 63.4557C57.4452 63.3462 57.2204 63.1848 57.0333 62.9855C56.8476 62.7879 56.6977 62.5506 56.5952 62.2873C56.4972 62.0345 56.4425 61.7581 56.4425 61.4703C56.4425 61.1824 56.4972 60.906 56.5952 60.6532C56.6977 60.3899 56.8476 60.1526 57.0333 59.955C57.2204 59.7558 57.4452 59.5943 57.6941 59.4849C57.9355 59.3785 58.2002 59.3195 58.4766 59.3195C58.5642 59.3195 58.6534 59.3261 58.7437 59.3384L58.8127 59.3494L58.876 59.2351L58.8274 59.2258ZM52.3346 55.8345C52.4808 55.8345 52.626 55.8478 52.7668 55.8729C52.9115 55.8982 53.052 55.9369 53.1867 55.9865L53.4794 56.0943L53.2968 56.3466C53.2452 56.4181 53.1951 56.4954 53.1474 56.5772C53.097 56.6649 53.0513 56.7507 53.0123 56.8345L52.9271 57.0172L52.7342 56.9623C52.6683 56.9436 52.6018 56.9291 52.5367 56.9201C52.4738 56.9116 52.4061 56.9069 52.3346 56.9069C52.1244 56.9069 51.9241 56.9514 51.7424 57.0315C51.552 57.1153 51.3796 57.2395 51.2357 57.3926C51.0904 57.5474 50.973 57.7324 50.8934 57.9367C50.8167 58.1349 50.7739 58.3534 50.7739 58.5837C50.7739 58.8141 50.8167 59.0325 50.8934 59.2306C50.973 59.4349 51.0904 59.6199 51.2357 59.7747C51.3796 59.9278 51.552 60.052 51.7424 60.1358C51.9241 60.2159 52.1244 60.2605 52.3346 60.2605C52.3891 60.2605 52.4385 60.2579 52.4823 60.2536C52.5322 60.2487 52.5819 60.2409 52.6298 60.2311L52.8272 60.1911L52.898 60.3792C52.9344 60.4764 52.9723 60.5672 53.0106 60.6489C53.0495 60.7318 53.0925 60.8143 53.1392 60.8951L53.2921 61.1593L52.9979 61.2414C52.8915 61.271 52.7813 61.2939 52.6691 61.3093C52.5564 61.3245 52.4444 61.3328 52.3346 61.3328C51.9821 61.3328 51.6445 61.2575 51.3373 61.1222C51.0196 60.9822 50.7332 60.7764 50.4944 60.5221C50.2569 60.269 50.0647 59.9657 49.9341 59.6292C49.8084 59.3062 49.7388 58.9529 49.7388 58.5837C49.7388 58.2144 49.8084 57.8611 49.9341 57.5381C50.0649 57.2014 50.2569 56.8983 50.4944 56.6452C50.7332 56.3909 51.0196 56.1853 51.3373 56.0451C51.6445 55.9099 51.9821 55.8345 52.3346 55.8345ZM52.6853 56.3392C52.5723 56.3191 52.4546 56.3085 52.3346 56.3085C52.0486 56.3085 51.7755 56.3691 51.5276 56.4784C51.2684 56.5925 51.0343 56.761 50.8386 56.9694C50.6414 57.1793 50.4823 57.4305 50.3743 57.7082C50.2699 57.9765 50.2122 58.2723 50.2122 58.5837C50.2122 58.8951 50.2699 59.191 50.3743 59.4591C50.4823 59.7368 50.6414 59.988 50.8386 60.1979C51.0343 60.4063 51.2684 60.5748 51.5276 60.6889C51.7755 60.7982 52.0486 60.8588 52.3346 60.8588C52.4208 60.8588 52.5033 60.8539 52.5815 60.8442L52.5275 60.724C52.4595 60.7307 52.3947 60.7344 52.3346 60.7344C52.0581 60.7344 51.7934 60.6754 51.552 60.569C51.303 60.4594 51.0785 60.2979 50.8916 60.0989C50.7059 59.9015 50.5556 59.664 50.4531 59.4008C50.3552 59.1479 50.3005 58.8715 50.3005 58.5837C50.3005 58.2958 50.3552 58.0194 50.4531 57.7666C50.5556 57.5033 50.7059 57.2658 50.8916 57.0684C51.0785 56.8694 51.303 56.7079 51.552 56.5983C51.7934 56.4919 52.0581 56.4329 52.3346 56.4329C52.4222 56.4329 52.5113 56.4395 52.6016 56.4518L52.6708 56.4628L52.7337 56.3485L52.6853 56.3392ZM52.3346 62.7724C52.4808 62.7724 52.626 62.7857 52.7668 62.8109C52.9115 62.8361 53.052 62.8748 53.1867 62.9244L53.4794 63.0322L53.2968 63.2845C53.2452 63.3561 53.1951 63.4333 53.1474 63.5151C53.097 63.6028 53.0513 63.6886 53.0123 63.7725L52.9271 63.9553L52.7342 63.9002C52.6683 63.8815 52.6018 63.867 52.5367 63.858C52.4738 63.8495 52.4061 63.8448 52.3346 63.8448C52.1244 63.8448 51.9241 63.8893 51.7424 63.9694C51.552 64.0533 51.3796 64.1775 51.2357 64.3306C51.0904 64.4853 50.973 64.6704 50.8934 64.8747C50.8167 65.0728 50.7739 65.2913 50.7739 65.5216C50.7739 65.752 50.8167 65.9705 50.8934 66.1685C50.973 66.3728 51.0904 66.5579 51.2357 66.7126C51.3796 66.8657 51.552 66.9899 51.7424 67.0738C51.9241 67.1539 52.1244 67.1985 52.3346 67.1985C52.3891 67.1985 52.4385 67.1959 52.4823 67.1916C52.5322 67.1866 52.5819 67.1788 52.6298 67.169L52.8272 67.129L52.898 67.3172C52.9344 67.4143 52.9723 67.5051 53.0106 67.5869C53.0495 67.6698 53.0925 67.7523 53.1392 67.833L53.2921 68.0974L52.9979 68.1793C52.8915 68.2089 52.7813 68.2319 52.6691 68.2473C52.5564 68.2624 52.4444 68.2708 52.3346 68.2708C51.9821 68.2708 51.6445 68.1954 51.3373 68.0601C51.0196 67.9201 50.7332 67.7144 50.4944 67.46C50.2569 67.2069 50.0647 66.9036 49.9341 66.5671C49.8084 66.2441 49.7388 65.8908 49.7388 65.5216C49.7388 65.1524 49.8084 64.7991 49.9341 64.4761C50.0649 64.1393 50.2569 63.8362 50.4944 63.5831C50.7332 63.3288 51.0196 63.1232 51.3373 62.9831C51.6445 62.8478 51.9821 62.7724 52.3346 62.7724ZM52.6853 63.2772C52.5723 63.2571 52.4546 63.2464 52.3346 63.2464C52.0486 63.2464 51.7755 63.3071 51.5276 63.4163C51.2684 63.5305 51.0343 63.6991 50.8386 63.9073C50.6414 64.1172 50.4823 64.3685 50.3743 64.6462C50.2699 64.9144 50.2122 65.2102 50.2122 65.5216C50.2122 65.833 50.2699 66.129 50.3743 66.397C50.4823 66.6747 50.6414 66.9259 50.8386 67.1358C51.0343 67.3442 51.2684 67.5127 51.5276 67.6269C51.7755 67.7361 52.0486 67.7968 52.3346 67.7968C52.4208 67.7968 52.5033 67.7918 52.5815 67.7822L52.5275 67.6619C52.4595 67.6686 52.3947 67.6724 52.3346 67.6724C52.0581 67.6724 51.7934 67.6134 51.552 67.507C51.303 67.3973 51.0785 67.2359 50.8916 67.0368C50.7059 66.8394 50.5556 66.602 50.4531 66.3388C50.3552 66.0859 50.3005 65.8096 50.3005 65.5216C50.3005 65.2337 50.3552 64.9574 50.4531 64.7045C50.5556 64.4412 50.7059 64.2037 50.8916 64.0064C51.0785 63.8073 51.303 63.646 51.552 63.5362C51.7934 63.4298 52.0581 63.3708 52.3346 63.3708C52.4222 63.3708 52.5113 63.3774 52.6016 63.3898L52.6708 63.4007L52.7337 63.2864L52.6853 63.2772ZM46.4513 58.7211C46.5976 58.7211 46.7422 58.7344 46.8835 58.7595C47.0279 58.7848 47.1688 58.8235 47.3031 58.873L47.5967 58.9813L47.4132 59.2342C47.3581 59.3103 47.3082 59.3873 47.2634 59.464C47.2159 59.5456 47.1706 59.6318 47.1287 59.7212L47.0433 59.9042L46.8506 59.8489C46.785 59.8302 46.7188 59.8159 46.6534 59.8069C46.5902 59.7982 46.5223 59.7935 46.4513 59.7935C46.241 59.7935 46.0408 59.838 45.859 59.9181C45.6687 60.002 45.4961 60.1259 45.3522 60.2792C45.2068 60.434 45.0897 60.619 45.0101 60.8233C44.9335 61.0214 44.8905 61.24 44.8905 61.4703C44.8905 61.7006 44.9335 61.9192 45.0101 62.1172C45.0897 62.3215 45.2068 62.5066 45.3522 62.6613C45.4961 62.8146 45.6687 62.9386 45.859 63.0224C46.0408 63.1025 46.241 63.1472 46.4513 63.1472C46.5057 63.1472 46.5552 63.1445 46.5989 63.1402C46.6489 63.1353 46.6986 63.1275 46.7465 63.1177L46.9441 63.0777L47.0146 63.2659C47.0509 63.3628 47.0885 63.4528 47.1266 63.5343C47.1673 63.621 47.2106 63.7042 47.2556 63.7827L47.4071 64.0462L47.1143 64.1279C47.0085 64.1576 46.8982 64.1805 46.7858 64.1959C46.673 64.2111 46.561 64.2195 46.4513 64.2195C46.0985 64.2195 45.7612 64.1441 45.4539 64.0088C45.1363 63.8686 44.8499 63.663 44.611 63.4087C44.3738 63.1558 44.1814 62.8531 44.0507 62.5166C43.9246 62.1938 43.8552 61.8399 43.8552 61.4703C43.8552 61.1006 43.9246 60.7467 44.0505 60.4237C44.1814 60.0875 44.3738 59.7847 44.611 59.5318C44.8499 59.2775 45.1363 59.0719 45.4539 58.9318C45.7612 58.7965 46.0985 58.7211 46.4513 58.7211ZM46.8021 59.2258C46.6887 59.2057 46.5712 59.1951 46.4513 59.1951C46.1651 59.1951 45.8922 59.2557 45.6443 59.365C45.3851 59.4792 45.1509 59.6476 44.9552 59.856C44.758 60.0659 44.5987 60.3169 44.4907 60.5949C44.3864 60.8639 44.3286 61.1596 44.3286 61.4703C44.3286 61.7809 44.3864 62.0766 44.4907 62.3447C44.5987 62.6236 44.758 62.8746 44.9552 63.0845C45.1509 63.2929 45.3851 63.4614 45.6443 63.5755C45.8922 63.6848 46.1651 63.7455 46.4513 63.7455C46.5374 63.7455 46.62 63.7405 46.6979 63.7311L46.6439 63.6106C46.5762 63.6173 46.5114 63.6211 46.4513 63.6211C46.1747 63.6211 45.9102 63.562 45.6686 63.4557C45.4199 63.3462 45.195 63.1848 45.008 62.9855C44.8221 62.7879 44.6723 62.5506 44.5699 62.2873C44.4718 62.0345 44.4172 61.7581 44.4172 61.4703C44.4172 61.1824 44.4718 60.906 44.5699 60.6532C44.6723 60.3899 44.8221 60.1526 45.008 59.955C45.195 59.7558 45.4199 59.5943 45.6686 59.4849C45.9102 59.3785 46.1747 59.3195 46.4513 59.3195C46.5386 59.3195 46.6281 59.3261 46.7182 59.3387L46.7874 59.3496L46.8509 59.2351L46.8021 59.2258Z" fill="#03568A"/>
<path d="M105.037 58.3091C106.052 58.3091 106.974 58.7226 107.641 59.3903L107.644 59.3934C108.311 60.0615 108.724 60.9836 108.724 62.0005C108.724 63.0172 108.311 63.9394 107.644 64.6074L107.641 64.6105C106.974 65.2783 106.052 65.6917 105.037 65.6917C104.021 65.6917 103.1 65.2783 102.433 64.6105L102.429 64.6074C101.762 63.9394 101.349 63.0172 101.349 62.0005C101.349 60.9836 101.762 60.0615 102.429 59.3934L102.433 59.3903C103.1 58.7226 104.021 58.3091 105.037 58.3091ZM106.465 60.571C106.1 60.2065 105.595 59.9812 105.037 59.9812C104.478 59.9812 103.973 60.2065 103.609 60.571C103.245 60.936 103.02 61.4414 103.02 62.0005C103.02 62.5594 103.245 63.0649 103.609 63.4299C103.973 63.7943 104.478 64.0197 105.037 64.0197C105.595 64.0197 106.1 63.7943 106.465 63.4299C106.829 63.0649 107.054 62.5594 107.054 62.0005C107.054 61.4414 106.829 60.936 106.465 60.571Z" fill="#36A6D4"/>
<path d="M17.3023 58.844C18.3181 58.844 19.2392 59.2575 19.9064 59.9254L19.9095 59.9285C20.5766 60.5964 20.9897 61.5185 20.9897 62.5354C20.9897 63.5523 20.5766 64.4743 19.9095 65.1424L19.9064 65.1455C19.2392 65.8132 18.3181 66.2268 17.3023 66.2268C16.2866 66.2268 15.3655 65.8132 14.6982 65.1455L14.6951 65.1424C14.0281 64.4743 13.615 63.5523 13.615 62.5354C13.615 61.5185 14.0281 60.5964 14.6951 59.9285L14.6982 59.9254C15.3655 59.2575 16.2866 58.844 17.3023 58.844ZM18.7302 61.1059C18.3656 60.7415 17.8608 60.5161 17.3023 60.5161C16.7439 60.5161 16.239 60.7415 15.8744 61.1059C15.5104 61.4709 15.2853 61.9763 15.2853 62.5354C15.2853 63.0944 15.5104 63.5999 15.8744 63.9649C16.239 64.3293 16.7439 64.5547 17.3023 64.5547C17.8608 64.5547 18.3656 64.3293 18.7302 63.9649C19.0942 63.5999 19.3194 63.0944 19.3194 62.5354C19.3194 61.9763 19.0942 61.4709 18.7302 61.1059Z" fill="#36A6D4"/>
<path d="M62 0C79.1015 0 94.5847 6.94013 105.792 18.1598C116.999 29.3796 123.932 44.8797 123.932 62.0001C123.932 79.1201 116.999 94.6202 105.792 105.84C94.5847 117.06 79.1015 124 62 124C44.899 124 29.4154 117.06 18.208 105.84C7.00062 94.6202 0.0681152 79.1201 0.0681152 62.0001C0.0681152 44.8797 7.00062 29.3796 18.208 18.1598C29.4154 6.94013 44.899 0 62 0ZM101.795 22.1608C91.6115 11.9658 77.5413 5.65947 62 5.65947C46.4587 5.65947 32.3885 11.9658 22.2046 22.1608C12.0208 32.3559 5.72137 46.4416 5.72137 62.0001C5.72137 77.5584 12.0208 91.6439 22.2046 101.839C32.3885 112.034 46.4587 118.341 62 118.341C77.5413 118.341 91.6115 112.034 101.795 101.839C111.979 91.6439 118.279 77.5584 118.279 62.0001C118.279 46.4416 111.979 32.3559 101.795 22.1608Z" fill="#36A6D4"/>
<path d="M27.6401 31.0554L26.2247 29.707L26.8774 29.0203C27.3954 28.4752 27.8754 28.5378 28.3001 28.9424C28.7247 29.3468 28.811 29.8236 28.2929 30.3686L27.6401 31.0554ZM30.6314 26.4896C29.0743 25.0063 27.0425 24.9612 25.1982 26.9014L21.9863 30.2806L29.6955 37.6243L31.9957 35.2044L29.5457 32.8706L30.4575 31.9114C32.3018 29.971 32.0578 27.8484 30.6314 26.4896ZM37.2206 21.6473C37.5626 22.1785 37.4312 22.5855 36.9005 22.9278L35.7888 23.6452L34.8116 22.1274L35.9235 21.4101C36.4541 21.0678 36.9275 21.1919 37.2206 21.6473ZM30.4925 21.5845L36.2572 30.5392L39.0619 28.7297L36.9938 25.5171L37.0064 25.5089L40.7549 27.6374L43.8376 25.6485L39.6855 23.4761C40.6928 22.2355 40.7065 20.8125 39.9493 19.6362C38.8908 17.9919 36.9106 17.4436 34.6617 18.8946L30.4925 21.5845ZM52.93 16.2967C51.8407 13.2828 48.7979 11.9848 45.9429 13.0191C43.1021 14.0482 41.5514 17.0102 42.6408 20.024C43.7301 23.0378 46.8203 24.3346 49.6611 23.3054C52.4879 22.2815 54.0193 19.3104 52.93 16.2967ZM45.8349 18.8669C45.344 17.5086 45.7053 16.3856 46.9914 15.9196C48.2494 15.464 49.259 16.0903 49.7499 17.4487C50.2308 18.7787 49.8604 19.921 48.6024 20.3767C47.3164 20.8426 46.3157 20.1969 45.8349 18.8669ZM59.8897 17.3879C59.9339 18.0786 59.6754 18.2761 59.3154 18.2992C58.8803 18.327 58.52 18.1088 58.4605 17.1778L55.1756 17.388C55.354 20.1811 57.1672 21.4522 59.6572 21.2928C61.9972 21.143 63.3707 19.7735 63.2047 17.1757L62.7665 10.3132L59.4514 10.5255L59.8897 17.3879ZM73.6072 11.1599L66.5875 10.132L65.0474 20.6732L72.0672 21.701L72.4522 19.0657L68.734 18.5214L68.9516 17.0325L72.2234 17.5115L72.5867 15.0252L69.3149 14.546L69.504 13.2507L73.2222 13.7952L73.6072 11.1599ZM74.7292 16.7386C73.663 19.7287 74.7925 22.5132 77.8643 23.6109C80.5114 24.5571 82.8751 23.6124 84.1296 21.3925L80.8172 20.2087C80.2824 20.7685 79.5515 20.9386 78.8437 20.6856C77.7821 20.3063 77.4391 19.209 77.9142 17.8769C78.3893 16.5449 79.3487 15.9132 80.4104 16.2925C81.1181 16.5455 81.5761 17.1406 81.6358 17.9129L84.9483 19.0967C85.3817 16.5834 84.15 14.3538 81.5029 13.4077C78.4312 12.3099 75.7955 13.7486 74.7292 16.7386ZM87.9925 19.0997L90.2686 20.7248L85.6258 27.2422L88.3425 29.1817L92.9853 22.6643L95.286 24.3067L96.8219 22.1506L89.5284 16.9436L87.9925 19.0997ZM102.528 35.8326C104.936 33.7199 105.036 30.4103 103.035 28.1246C101.043 25.8502 97.723 25.4823 95.3154 27.595C92.9079 29.7076 92.826 33.0609 94.8174 35.3353C96.799 37.5985 100.121 37.9452 102.528 35.8326ZM97.5545 30.1522C98.6396 29.2001 99.8159 29.1283 100.718 30.158C101.599 31.1651 101.384 32.3344 100.299 33.2867C99.2364 34.2189 98.0388 34.2894 97.1571 33.2823C96.2555 32.2526 96.492 31.0846 97.5545 30.1522Z" fill="#03568A"/>
<path d="M28.5647 100.491L31.5458 103.113L32.2702 96.3594L38.3883 94.9503L35.554 92.4577L30.3055 93.8104L33.2617 90.4417L30.7548 88.2371L23.7316 96.2407L26.2385 98.4453L29.2838 94.9748L28.5647 100.491ZM40.5295 108.574L43.601 110.289L45.3994 99.0944L42.0393 97.2176L33.4548 104.622L36.5131 106.33L37.7561 105.181L40.8537 106.911L40.5295 108.574ZM41.3679 104.321L39.6878 103.382L41.9706 101.263L41.3679 104.321ZM53.9201 105.972C53.7383 106.577 53.3436 106.741 52.7391 106.559L51.4725 106.178L51.992 104.449L53.2587 104.83C53.8632 105.012 54.076 105.453 53.9201 105.972ZM49.6021 100.806L46.5366 111.008L49.7318 111.97L50.8317 108.31L50.8461 108.315L51.6606 112.551L55.1725 113.609L54.1294 109.036C55.7259 108.999 56.8165 108.086 57.2191 106.746C57.7821 104.872 56.914 103.008 54.3518 102.237L49.6021 100.806ZM65.9327 113.627L69.4491 113.551L65.3442 102.984L61.4973 103.066L57.8331 113.801L61.3345 113.726L61.826 112.105L65.3723 112.029L65.9327 113.627ZM64.5071 109.534L62.5836 109.575L63.482 106.591L64.5071 109.534ZM74.0869 106.424L73.539 104.547L74.448 104.281C75.1695 104.07 75.5531 104.365 75.7175 104.929C75.8818 105.492 75.7173 105.947 74.9959 106.158L74.0869 106.424ZM78.9637 103.979C78.361 101.914 76.6266 100.853 74.0585 101.604L69.586 102.912L72.5699 113.138L75.7728 112.202L74.8245 108.952L76.0942 108.581C78.6623 107.83 79.5158 105.871 78.9637 103.979ZM90.5359 106.351L93.6343 104.685L85.1822 97.1373L81.7926 98.9602L83.399 110.189L86.4842 108.53L86.1865 106.863L89.3113 105.182L90.5359 106.351ZM87.4085 103.353L85.7137 104.264L85.1598 101.197L87.4085 103.353ZM92.8426 99.4708C95.0479 101.71 97.5684 101.484 99.4631 99.6139C101.358 97.7442 101.759 95.087 99.554 92.8475L95.3438 88.5718L92.9781 90.9064L97.1884 95.182C97.832 95.8356 98.0179 96.603 97.3007 97.3108C96.5836 98.0186 95.8518 97.7899 95.2082 97.1362L90.9979 92.8607L88.6323 95.1951L92.8426 99.4708Z" fill="#03568A"/>
</svg>
